<svg width="24" height="24" viewBox="0 0 24 24" fill="none" xmlns="http://www.w3.org/2000/svg">
<g clip-path="url(#clip0_1679_120)">
<path d="M12 22C6.477 22 2 17.523 2 12C2 6.47704 6.477 2.00004 12 2.00004C17.523 2.00004 22 6.47704 22 12C22 17.523 17.523 22 12 22ZM12 20C14.1217 20 16.1566 19.1572 17.6569 17.6569C19.1571 16.1566 20 14.1218 20 12C20 9.87831 19.1571 7.84348 17.6569 6.34319C16.1566 4.8429 14.1217 4.00004 12 4.00004C9.87827 4.00004 7.84344 4.8429 6.34315 6.34319C4.84285 7.84348 4 9.87831 4 12C4 14.1218 4.84285 16.1566 6.34315 17.6569C7.84344 19.1572 9.87827 20 12 20ZM11 15H13V17H11V15ZM13 13.355V14H11V12.5C11 12.2348 11.1054 11.9805 11.2929 11.7929C11.4804 11.6054 11.7348 11.5 12 11.5C12.2841 11.5 12.5623 11.4193 12.8023 11.2674C13.0423 11.1154 13.2343 10.8984 13.3558 10.6416C13.4773 10.3848 13.5234 10.0988 13.4887 9.81688C13.454 9.53493 13.34 9.26863 13.1598 9.04895C12.9797 8.82928 12.7409 8.66527 12.4712 8.57601C12.2015 8.48675 11.912 8.47591 11.6364 8.54475C11.3608 8.61359 11.1104 8.75927 10.9144 8.96486C10.7183 9.17044 10.5847 9.42747 10.529 9.70604L8.567 9.31304C8.68863 8.70513 8.96951 8.14041 9.38092 7.67663C9.79233 7.21284 10.3195 6.86662 10.9086 6.67336C11.4977 6.4801 12.1275 6.44673 12.7337 6.57666C13.3399 6.70659 13.9007 6.99516 14.3588 7.41287C14.8169 7.83058 15.1559 8.36245 15.3411 8.95411C15.5263 9.54576 15.5511 10.176 15.4129 10.7803C15.2747 11.3847 14.9785 11.9415 14.5545 12.3939C14.1306 12.8463 13.5941 13.178 13 13.355Z" fill="white"/>
</g>
<defs>
<clipPath id="clip0_1679_120">
<rect width="24" height="24" fill="white"/>
</clipPath>
</defs>
</svg>
